<svg xmlns="http://www.w3.org/2000/svg" width="75" height="29" viewBox="0 0 75 29">
    <path fill="#FFF" fill-rule="evenodd" d="M74.258 18.396C72.45 8.336 51.53.183 27.534.183c-3.158 0-6.21.142-9.13.41 3.619-.044 7.47.168 11.479.64C53.83 4.064 69.839 13.663 70.35 23.14c.117 2.178-.707 4.148-2.309 5.86 4.576-2.986 6.929-6.648 6.217-10.604m.6-1.072C73.064 7.398 54.178-2.285 19.773.478c2.5-.193 5.093-.295 7.761-.295 23.997 0 44.917 8.154 46.724 18.213.712 3.956-1.641 7.617-6.217 10.604 4.606-2.5 7.668-6.968 6.817-11.676M24.654 21.64a.251.251 0 0 0-.2-.106l-2.44-.002h-.002c-.364 0-.658-.123-.824-.347-.168-.224-.19-.525-.063-.845.03-.074.68-1.725.826-2.08a.217.217 0 0 0 .01-.105.008.008 0 0 1-.002-.003h.001a.256.256 0 0 0-.045-.103c-.265-.352-1.58-2.112-1.635-2.186-.24-.32-.239-.518-.15-.743.089-.224.339-.347.705-.347l2.72-.001c.095 0 .15-.088.115-.175-.856-2.167-2.85-3.698-5.828-3.698l-6.255.002c-1.992 0-2.49 1.066-2.167 2.923l.063.363c.094.328.413.585.745.585l3.756.001c1.993 0 2.754.975 3.028 2.547l.27 1.545c.27 1.541.217 2.673-1.807 2.673h-4.044c-.355 0-.59.29-.528.648l.104.603c.368 2.107 1.51 2.768 3.502 2.768h10.918c1.429 0 1.43-.942.849-1.75-.08-.113-1.622-2.167-1.622-2.167zm14.062-3.758c-.96-5.506-4.455-6.983-7.722-6.983H27.08c-1.427 0-1.433.968-.848 1.75l1.504 2.015c.05.067.126.109.2.108l3.718.001c.365 0 .659.123.826.347.167.225.19.524.062.844l-.824 2.081a.22.22 0 0 0 .036.213c.003.003 1.503 2.017 1.55 2.082.24.32.323.62.234.844-.089.225-.339.348-.705.348l-3.367.002a.17.17 0 0 0-.163.106l-.847 2.166c-.307.782.04 1.75 1.469 1.75h3.657c4.108 0 6.073-2.296 5.25-7.015l-.116-.66zm-30.554-.074l-.186-1.064-.432-2.48c-.368-2.108-1.428-3.365-3.793-3.365H2.258c-1.992 0-2.49 1.068-2.167 2.925l.064.363c.093.328.41.585.744.585h.619c.808 0 .956.314 1.083 1.038l.163.934.197 1.128.051.408c.297 1.698 1.216 2.328 2.928 2.328h2.037c.355 0 .59-.29.529-.648l-.344-2.152zm50.254 1.698l-.405-2.32c-.874-5.018-3.746-6.366-6.818-6.366h-.537c-2.172 0-3.793.596-3.997 2.979-.04.658-.6.557-.792-.094-.546-1.848-1.758-2.804-3.807-2.804h-.95c-1.992 0-2.49 1.066-2.166 2.923l.063.363c.062.36.4.63.896.63.878 0 1.118.273 1.26 1.089l1.58 9.017c.086.336.408.604.749.604h2.383c1.613 0 2.362-.376 2.066-2.07l-.981-5.64c-.329-1.88.548-3.041 1.867-3.041h.682c1.737 0 2.619.784 2.947 2.665l.254 1.473c.28 1.599.02 2.602-2.026 2.602h-.824c-.354 0-.59.29-.527.647l.04.227c.416 2.385 1.49 3.388 3.91 3.388h.55c3.196 0 5.322-2.038 4.583-6.272z"/>
</svg>
